<svg xmlns="http://www.w3.org/2000/svg" viewBox="0 0 400 120">
  <defs>
    <!-- Gradientes para el tema dark -->
    <linearGradient id="primaryGradient" x1="0%" y1="0%" x2="100%" y2="100%">
      <stop offset="0%" style="stop-color:#4299e1;stop-opacity:1" />
      <stop offset="50%" style="stop-color:#3182ce;stop-opacity:1" />
      <stop offset="100%" style="stop-color:#2b6cb0;stop-opacity:1" />
    </linearGradient>

    <linearGradient id="accentGradient" x1="0%" y1="0%" x2="100%" y2="100%">
      <stop offset="0%" style="stop-color:#38a169;stop-opacity:1" />
      <stop offset="100%" style="stop-color:#2f855a;stop-opacity:1" />
    </linearGradient>

    <linearGradient id="textGradient" x1="0%" y1="0%" x2="100%" y2="0%">
      <stop offset="0%" style="stop-color:#ffffff;stop-opacity:1" />
      <stop offset="100%" style="stop-color:#e2e8f0;stop-opacity:1" />
    </linearGradient>

    <!-- Filtro de brillo -->
    <filter id="glow">
      <feGaussianBlur stdDeviation="2" result="coloredBlur"/>
      <feMerge>
        <feMergeNode in="coloredBlur"/>
        <feMergeNode in="SourceGraphic"/>
      </feMerge>
    </filter>

    <!-- Sombra -->
    <filter id="shadow">
      <feDropShadow dx="2" dy="2" stdDeviation="3" flood-color="#000000" flood-opacity="0.3"/>
    </filter>
  </defs>

  <!-- Fondo con esquinas redondeadas -->
  <rect x="0" y="0" width="400" height="120" rx="12" ry="12" fill="#1a202c" stroke="#2d3748" stroke-width="2"/>

  <!-- Elemento decorativo - Círculos conectados (representando integración) -->
  <g filter="url(#glow)">
    <!-- Círculo principal (SICORA core) -->
    <circle cx="50" cy="60" r="25" fill="url(#primaryGradient)" stroke="#4299e1" stroke-width="2"/>

    <!-- Círculos secundarios (componentes del sistema) -->
    <circle cx="25" cy="35" r="12" fill="url(#accentGradient)" stroke="#38a169" stroke-width="1"/>
    <circle cx="75" cy="35" r="12" fill="url(#accentGradient)" stroke="#38a169" stroke-width="1"/>
    <circle cx="25" cy="85" r="12" fill="url(#accentGradient)" stroke="#38a169" stroke-width="1"/>
    <circle cx="75" cy="85" r="12" fill="url(#accentGradient)" stroke="#38a169" stroke-width="1"/>

    <!-- Líneas de conexión (representando integración) -->
    <line x1="37" y1="47" x2="50" y2="60" stroke="#4299e1" stroke-width="2" opacity="0.7"/>
    <line x1="63" y1="47" x2="50" y2="60" stroke="#4299e1" stroke-width="2" opacity="0.7"/>
    <line x1="37" y1="73" x2="50" y2="60" stroke="#4299e1" stroke-width="2" opacity="0.7"/>
    <line x1="63" y1="73" x2="50" y2="60" stroke="#4299e1" stroke-width="2" opacity="0.7"/>
  </g>

  <!-- Icono central en el círculo principal -->
  <g transform="translate(40, 50)">
    <!-- Icono de sistema integrado -->
    <rect x="5" y="5" width="8" height="8" fill="#ffffff" rx="1"/>
    <rect x="15" y="5" width="8" height="8" fill="#ffffff" rx="1"/>
    <rect x="5" y="15" width="8" height="8" fill="#ffffff" rx="1"/>
    <rect x="15" y="15" width="8" height="8" fill="#ffffff" rx="1"/>

    <!-- Líneas de conexión internas -->
    <line x1="13" y1="9" x2="15" y2="9" stroke="#1a202c" stroke-width="1"/>
    <line x1="9" y1="13" x2="9" y2="15" stroke="#1a202c" stroke-width="1"/>
    <line x1="19" y1="13" x2="19" y2="15" stroke="#1a202c" stroke-width="1"/>
    <line x1="13" y1="19" x2="15" y2="19" stroke="#1a202c" stroke-width="1"/>
  </g>

  <!-- Texto SICORA -->
  <text x="110" y="45" font-family="monospace" font-size="32" font-weight="bold" fill="url(#textGradient)" filter="url(#shadow)">
    SICORA
  </text>

  <!-- Subtítulo -->
  <text x="110" y="65" font-family="monospace" font-size="14" fill="#a0aec0">
    Sistema Integral de Control Operacional y
  </text>
  <text x="110" y="82" font-family="monospace" font-size="14" fill="#a0aec0">
    Registro Académico
  </text>

  <!-- Badge OneVision -->
  <rect x="110" y="90" width="120" height="20" rx="10" fill="url(#accentGradient)" filter="url(#shadow)"/>
  <text x="170" y="103" text-anchor="middle" font-family="monospace" font-size="11" font-weight="bold" fill="#ffffff">
    OneVision Open Source
  </text>

  <!-- Elementos decorativos adicionales -->
  <g opacity="0.3">
    <!-- Puntos decorativos -->
    <circle cx="350" cy="25" r="2" fill="#4299e1"/>
    <circle cx="360" cy="30" r="1.5" fill="#38a169"/>
    <circle cx="370" cy="25" r="2" fill="#4299e1"/>

    <circle cx="350" cy="95" r="2" fill="#38a169"/>
    <circle cx="360" cy="90" r="1.5" fill="#4299e1"/>
    <circle cx="370" cy="95" r="2" fill="#38a169"/>

    <!-- Líneas decorativas -->
    <line x1="340" y1="60" x2="380" y2="60" stroke="#4299e1" stroke-width="1" opacity="0.5"/>
  </g>

  <!-- Versión y fecha en la esquina -->
  <text x="390" y="115" text-anchor="end" font-family="monospace" font-size="8" fill="#718096">
    v2025.08
  </text>
</svg>
